<?xml version="1.0" encoding="utf-8"?>
<svg version="1.1" xmlns="http://www.w3.org/2000/svg"  x="0px" y="0px" viewBox="0 0 100 100" xml:space="preserve">

<g>
	<path class="st1" d="M70.5,54c2.3-2.1,5.2-4.8,6.7-6.1c2.6-2.2,8.8-8.1,13.4-2.6c4.8,5.7-0.5,8.7-5.5,13.7c-6,6-12.5,12.9-19.3,19.9c-4.2,4.3-15.3,12.5-27,9.9c-7.5-1.7-16.3-5.6-21.4-18.6c-2.4-6.2-2.1-43.4-2.2-48.6c-0.1-5.3,0.8-10.2,6.5-10.8c4.9-0.5,8.2,3.6,8.1,11.9c0,1.5,0.2,24.9,0.4,33.1"/>
	<path class="st1" d="M54,61.2c1.8-1,3-3,3-5.2l-0.1-20.2c0-3.2-2.7-5.8-5.9-5.8l-1.6,0c-3.2,0-5.8,1.9-5.8,5.9l0.1,20.2c0,3.2,2.7,5.8,5.9,5.8l1.6,0C52.2,62,53.1,61.7,54,61.2"/>
	<path class="st1" d="M67.5,61.3c1.8-1,3-3,3-5.2l-0.1-20.2c0-3.2-2.7-5.8-5.9-5.8l-1.6,0c-3.2,0-5.8,2.7-5.8,5.9l0.1,20.2c0,3.2,2.7,5.8,5.9,5.8l1.6,0C65.7,62.1,66.6,61.8,67.5,61.3"/>
	<path class="st1" d="M36.1,61.5l1.6,0c3.2,0,5.8-2.7,5.8-5.9l-0.1-19.2c0-3.2-2.7-5.8-5.9-5.8l-1.6,0c-3.2,0-5.8,2.7-5.8,5.9l0.1,19.2C30.2,58.9,32.9,61.5,36.1,61.5z"/>
</g>
</svg>
